<?xml version="1.0" encoding="UTF-8"?>
<svg width="16px" height="13px" viewBox="0 0 16 13" version="1.1" xmlns="http://www.w3.org/2000/svg" xmlns:xlink="http://www.w3.org/1999/xlink">
    <!-- Generator: Sketch 57.1 (83088) - https://sketch.com -->
    <title>形状@2x</title>
    <desc>Created with Sketch.</desc>
    <g id="V2.1正式版" stroke="none" stroke-width="1" fill="none" fill-rule="evenodd">
        <g id="账号管理" transform="translate(-31.000000, -90.000000)" fill="#FFFFFF" fill-rule="nonzero">
            <g id="编组-4-&lt;v8&gt;" transform="translate(0.000000, 72.000000)">
                <g id="编组">
                    <path d="M47,29.7254902 C47,29.8998431 46.9649145,30.0650196 46.9488754,30.2352941 L45.9464319,30.2352941 C45.9654784,30.0660392 45.9975565,29.8998431 45.9975565,29.7254902 C45.9953435,27.2324608 44.0343465,25.1984753 41.583798,25.147451 C41.2837932,24.8690499 40.9619422,24.6160264 40.6214523,24.390902 C40.6755842,24.263451 40.7046551,24.1247843 40.7467577,23.9922353 C40.9823319,24.0666667 41.2269281,24.1176471 41.486561,24.1176471 C42.8706466,24.1176471 43.9926696,22.9764121 43.9926696,21.5686275 C43.9926696,20.1608428 42.8706466,19.0196078 41.486561,19.0196078 C40.9006712,19.0219032 40.3344036,19.2345944 39.8876637,19.6201569 C39.6706247,19.3592692 39.4254983,19.123968 39.1568824,18.9186667 C39.7949319,18.3297926 40.6249945,18.0024724 41.486561,18 C43.0223794,18.0015689 44.3786891,19.018937 44.8339192,20.5108537 C45.2891492,22.0027704 44.7374785,23.6224301 43.4724015,24.5081569 C45.5952812,25.3387264 46.9971039,27.4120282 47,29.7254902 L47,29.7254902 Z M38.4601842,25.5277647 C40.4077236,26.2956124 41.7593416,28.1195412 41.9486874,30.2352941 L40.9342146,30.2352941 C40.6826013,27.9442353 38.7939979,26.1568627 36.4743437,26.1568627 C34.1546896,26.1568627 32.2660861,27.9442353 32.0134703,30.2352941 L31,30.2352941 C31.1891166,28.1194513 32.5408157,26.2954131 34.4885032,25.5277647 C33.2211785,24.6427777 32.6678507,23.0217285 33.1233502,21.528363 C33.5788497,20.0349975 34.9370843,19.0171421 36.4743437,19.0171421 C38.0116032,19.0171421 39.3698377,20.0349975 39.8253372,21.528363 C40.2808368,23.0217285 39.7275089,24.6427777 38.4601842,25.5277647 L38.4601842,25.5277647 Z M36.4743437,20.0392157 C35.0902581,20.0392157 33.9682351,21.1804506 33.9682351,22.5882353 C33.9682351,23.99602 35.0902581,25.1372549 36.4743437,25.1372549 C37.8584293,25.1372549 38.9804524,23.99602 38.9804524,22.5882353 C38.9804524,21.1804506 37.8584293,20.0392157 36.4743437,20.0392157 L36.4743437,20.0392157 Z" id="形状"></path>
                </g>
            </g>
        </g>
    </g>
</svg>