<?xml version="1.0" encoding="UTF-8"?>
<svg width="15px" height="14px" viewBox="0 0 15 14" version="1.1" xmlns="http://www.w3.org/2000/svg" xmlns:xlink="http://www.w3.org/1999/xlink">
    <!-- Generator: Sketch 57.1 (83088) - https://sketch.com -->
    <title>催化剂智能管理@1x</title>
    <desc>Created with Sketch.</desc>
    <g id="V2.1正式版" stroke="none" stroke-width="1" fill="none" fill-rule="evenodd" opacity="0.200000003">
        <g id="首页二级导航" transform="translate(-391.000000, -366.000000)">
            <g id="编组备份-7" transform="translate(359.000000, 347.000000)">
                <g id="催化剂智能管理" transform="translate(32.000000, 19.000000)">
                    <rect id="矩形" fill="#000000" opacity="0" x="0" y="0" width="14" height="14"></rect>
                    <path d="M4.15765793,0.00017881621 L10.0950823,0.00017881621 C10.4225308,0.00017881621 10.6859624,0.196391239 10.6859624,0.434388553 C10.6859624,0.646046358 10.4778189,0.82459593 10.2015873,0.861660554 L10.0950823,0.868716007 L9.79601978,0.868716007 L9.79601978,4.36334519 L14.067578,11.6539256 L14.0533256,11.6748769 C14.1672259,11.8989851 14.245614,12.1441624 14.245614,12.4172355 C14.245614,13.1853639 13.7388123,13.8304894 13.0771256,13.9773769 L12.9428274,14 L1.45944411,14 C0.655015814,14 0.00712619857,13.2927172 0,12.4171178 C0,12.154638 0.0790974287,11.9113669 0.191997534,11.6958189 L0.26343156,11.569885 L0.256305375,11.5557605 L4.45648292,4.37040743 L4.45648292,0.868716007 L4.15753916,0.868716007 C3.83009064,0.868716007 3.56665908,0.672621287 3.56665908,0.434623974 C3.56665908,0.216688633 3.77489637,0.0374415567 4.05114889,0.00517679434 L4.15765793,0.00017881621 L10.0950823,0.00017881621 Z M10.3086305,6.99661715 L3.9512359,6.99661715 L1.10349082,11.8709716 C1.08223102,11.9199364 1.06085244,11.969019 1.03234767,12.0181015 C0.939825943,12.1651137 0.897068793,12.2982368 0.897068793,12.4172355 C0.897068793,12.7674581 1.10889142,13.0655409 1.3773595,13.1168433 L1.45944411,13.124636 L12.8786916,13.124636 C13.1136184,13.0686089 13.3557902,12.8024804 13.348664,12.4172355 C13.348664,12.3121259 13.313033,12.2000717 13.2488973,12.0670663 L13.2212833,12.0040359 L13.2212833,12.0040359 L13.199014,11.9410054 L10.3086305,6.99661715 Z M9.42045406,9.63934426 C10.1871627,9.63934426 10.8064085,10.2063645 10.7990292,10.9015826 C10.7990292,11.5968007 10.1797834,12.1639344 9.42057705,12.1639344 C8.66112468,12.1639344 8.04187889,11.5969142 8.04187889,10.9015826 C8.04187889,10.2063645 8.65374538,9.63934426 9.42045406,9.63934426 Z M9.42045406,10.4897612 C9.16980404,10.4897612 8.96342977,10.6788814 8.96342977,10.9083896 C8.96342977,11.1378978 9.16980403,11.3267911 9.42045406,11.3267911 C9.54143894,11.327935 9.65784247,11.284275 9.74371818,11.2056564 C9.82959388,11.1270379 9.87780361,11.0199956 9.87760198,10.9083896 C9.87760198,10.6787679 9.6711041,10.4897612 9.42045406,10.4897612 Z M6.20373514,7.80327869 C6.71111385,7.80327869 7.12280702,8.2145021 7.12280702,8.72124977 C7.12280702,9.22799744 6.71123653,9.63934426 6.20385782,9.63934426 C5.69647911,9.63934426 5.28466327,9.22812085 5.28466327,8.72137318 C5.28466327,8.21462551 5.69647911,7.80352553 6.20385782,7.80352553 Z M8.90607717,0.868716007 L5.34654428,0.868716007 L5.34654428,4.37040743 C5.34613769,4.48501224 5.32253083,4.59797082 5.27755238,4.70272415 L5.2255178,4.80461717 L4.46372787,6.12113543 L9.80314596,6.12113543 L9.02722244,4.79755493 C8.96843135,4.69780087 8.92968268,4.59010178 8.91398279,4.47748672 L8.90607717,4.36334519 L8.90607717,0.868716007 Z" id="合并形状" fill="#B0D5DC" fill-rule="nonzero"></path>
                </g>
            </g>
        </g>
    </g>
</svg>