<?xml version="1.0" encoding="UTF-8"?>
<svg width="14px" height="14px" viewBox="0 0 14 14" version="1.1" xmlns="http://www.w3.org/2000/svg" xmlns:xlink="http://www.w3.org/1999/xlink">
    <!-- Generator: Sketch 57.1 (83088) - https://sketch.com -->
    <title>粉耗智能分析@1x</title>
    <desc>Created with Sketch.</desc>
    <g id="V2.1正式版" stroke="none" stroke-width="1" fill="none" fill-rule="evenodd" opacity="0.200000003">
        <g id="首页二级导航" transform="translate(-390.000000, -265.000000)" fill="rgba(176, 213, 220,0.3)" fill-rule="nonzero">
            <g id="编组备份-6" transform="translate(357.000000, 248.000000)">
                <g id="粉耗智能分析" transform="translate(33.000000, 17.000000)">
                    <path d="M5.82457992,0 C6.46489542,0 7.00076739,0.45391591 7.13994558,1.06336944 C7.28032152,0.971560734 7.44704789,0.918087047 7.62599128,0.918087047 C8.12353535,0.918087047 8.52669696,1.32927284 8.52669696,1.83617409 C8.52669696,1.92602942 8.51400084,2.01271051 8.49028545,2.09475233 C8.68432045,1.93311041 8.93201451,1.83617409 9.20222622,1.83617409 C9.82409642,1.83617409 10.3281083,2.34991217 10.3278689,2.98353873 L11.1836134,2.98360656 C11.471522,2.98360656 11.704918,3.24049236 11.704918,3.55737705 C11.704918,3.87426174 11.471522,4.13114754 11.1836134,4.13114754 L11.026,4.131 L11.0262693,4.22838297 C11.0248053,4.25713724 11.0224846,4.31557111 11.0201232,4.40118714 C10.9782819,5.91823503 11.0942104,7.77204226 11.4993324,9.54195293 C11.8048904,10.8768847 12.2497103,12.0025293 12.8459705,12.8531819 L13.2527704,12.852459 C13.5387,12.852459 13.7704918,13.1093448 13.7704918,13.4262295 C13.7704918,13.7431142 13.5387,14 13.2527704,14 L0.51772138,14 C0.231791757,14 0,13.7431142 0,13.4262295 C0,13.1093448 0.231791757,12.852459 0.51772138,12.852459 L0.924,12.852 L0.952282605,12.813219 C1.53460947,11.9674005 1.97036243,10.8560848 2.27115939,9.54195293 C2.6762814,7.77204226 2.79220987,5.91823503 2.75036856,4.40118714 C2.74800721,4.31557111 2.7456865,4.25713724 2.74363213,4.20517917 L2.743,4.131 L2.58687838,4.13114754 C2.29896979,4.13114754 2.06557377,3.87426174 2.06557377,3.55737705 C2.06557377,3.24049236 2.29896979,2.98360656 2.58687838,2.98360656 L4.50188917,2.98372552 C4.48337032,2.91037867 4.4735214,2.83348903 4.4735214,2.75426114 C4.4735214,2.51985594 4.55999873,2.30596119 4.70205151,2.14358675 C4.68073162,2.11135604 4.66108857,2.07790446 4.64240372,2.04372037 C4.48094743,2.19950216 4.26319705,2.29521762 4.02340811,2.29521762 C3.52586405,2.29521762 3.12270243,1.88403182 3.12270243,1.37713057 C3.12270243,0.869985146 3.52610359,0.459043524 4.02340811,0.459043524 C4.26319705,0.459043524 4.48094743,0.554758982 4.64240372,0.710540773 C4.87261067,0.286902202 5.31553748,0 5.82457992,0 Z M6.95022247,4.13114754 L3.655,4.131 L3.65512753,4.18197537 C3.65694498,4.21767081 3.65954649,4.28317531 3.66210736,4.37602526 C3.70588594,5.96331293 3.58556158,7.88741472 3.16023797,9.74558278 C2.88781506,10.9357531 2.50854755,11.9830025 2.00548385,12.8522618 L11.765,12.852 L11.6047375,12.5614121 C11.1804515,11.7527674 10.8529523,10.805892 10.6102538,9.74558278 C10.1849302,7.88741472 10.0646059,5.96331293 10.1083844,4.37602526 C10.1106795,4.29281248 10.1130072,4.23156321 10.1147739,4.19405082 L10.114,4.131 L9.20198667,4.13114754 L6.95022247,4.13114754 Z M8.14581344,2.58529406 C8.10892284,2.61190882 8.07011584,2.63583768 8.02939244,2.65659231 C8.05957566,2.76012127 8.07610457,2.86999871 8.07610457,2.98353873 C8.07596184,2.84762495 8.09956665,2.71277138 8.14581344,2.58529406 Z M2.22205663,1.80737705 C2.43517297,1.80737705 2.60804769,2.03838071 2.60804769,2.32377049 C2.60804769,2.60861092 2.43496766,2.84016393 2.22205663,2.84016393 C2.00873498,2.84016393 1.83606557,2.60861092 1.83606557,2.32377049 C1.83606557,2.03838071 2.00873498,1.80737705 2.22205663,1.80737705 Z" id="合并形状"></path>
                </g>
            </g>
        </g>
    </g>
</svg>