<?xml version="1.0" encoding="UTF-8"?>
<svg width="16px" height="14px" viewBox="0 0 16 14" version="1.1" xmlns="http://www.w3.org/2000/svg" xmlns:xlink="http://www.w3.org/1999/xlink">
    <!-- Generator: Sketch 57.1 (83088) - https://sketch.com -->
    <title>烟气流量智能分析@1x</title>
    <desc>Created with Sketch.</desc>
    <defs>
        <linearGradient x1="50%" y1="16.665914%" x2="50%" y2="100%" id="linearGradient-1">
            <stop stop-color="#69FFF9" offset="0%"></stop>
            <stop stop-color="#00FF88" offset="96.9404805%"></stop>
        </linearGradient>
    </defs>
    <g id="V2.1正式版" stroke="none" stroke-width="1" fill="none" fill-rule="evenodd">
        <g id="首页二级导航" transform="translate(-389.000000, -134.000000)" fill="rgba(176, 213, 220,0.3)" fill-rule="nonzero">
            <g id="编组-4-" transform="translate(328.000000, 97.000000)">
                <g id="编组" transform="translate(29.000000, 20.000000)">
                    <g id="烟气流量智能分析" transform="translate(32.000000, 17.000000)">
                        <path d="M11.876876,10.2748857 C12.92083,10.7620668 13.8363913,11.4541086 14.6479215,12.2705159 C14.8477314,12.4714991 14.9669721,12.7963161 15.0292152,13.0849512 C15.1278911,13.5424202 14.7561665,13.8611219 14.3068137,13.704873 C14.0370352,13.6110173 13.7861755,13.430529 13.5591946,13.2479136 C12.8375174,12.667342 12.1188031,12.0986908 11.2708401,11.6948853 C10.2816669,11.2238121 9.39757834,11.3157623 8.54728887,11.9806178 C8.01014613,12.4005978 7.47701977,12.8264935 6.92811317,13.2303655 C6.40841868,13.6126569 5.86210188,13.9500367 4.96196969,14 C4.50745922,13.8640688 3.8230708,13.7269632 3.19495573,13.4566517 C2.11167177,12.9903422 1.17947429,12.2797109 0.392327746,11.390098 C0.250327518,11.2295728 0.126258386,11.0355689 0.0524270467,10.8351174 C-0.0532500932,10.5482548 -0.00191492592,10.2637187 0.265888285,10.0750989 C0.528687469,9.89000195 0.804238143,9.9123802 1.04776744,10.1154905 C1.43296774,10.4367624 1.80085149,10.7792161 2.18719306,11.0989592 C2.98735447,11.7612445 3.89661682,12.2038464 4.93069452,12.2885071 C5.27243881,12.3165353 5.68329573,12.2215496 5.97056636,12.0369401 C6.57300287,11.6497521 7.11190141,11.1625931 7.68150449,10.7225836 C8.2429431,10.2888001 8.81610167,9.87254249 9.5449557,9.77503093 C10.3795308,9.66349419 11.1439397,9.93280866 11.876876,10.2748857 Z M12.3321815,5.54732609 C13.2739573,6.06263265 14.1465383,6.70640463 14.9990635,7.35476241 C15.2647707,7.55685204 15.6114625,8.09971531 15.583293,8.35660429 C15.5551235,8.6135142 15.1890501,8.74834532 15.0317141,8.74355011 C14.749736,8.73509045 14.4357817,8.64331148 14.199571,8.49269179 C13.4923092,8.04181688 12.8352305,7.51740153 12.1236834,7.0734158 C10.8834629,6.29954509 9.71276342,6.44363158 8.6159138,7.38807757 C8.20994632,7.7376878 7.74905369,8.02753596 7.32211676,8.35532696 C6.46543684,9.0130867 5.527881,9.12611953 4.49302609,8.81681833 C3.08176538,8.39507063 1.93033866,7.60147467 0.923414002,6.58907915 C0.802317662,6.46729351 0.701277155,6.31960538 0.621358356,6.16892287 C0.453776858,5.85296283 0.519600017,5.51627243 0.762053727,5.33606485 C0.999895901,5.15933328 1.35789906,5.1887327 1.63528733,5.41521715 C2.04203791,5.74732174 2.4321913,6.09967508 2.85284175,6.41433685 C3.55481767,6.93940134 4.35076454,7.27755752 5.22815287,7.43104596 C5.71701925,7.5166477 6.16518665,7.41749793 6.55790684,7.12857113 C7.04216169,6.77236487 7.53896774,6.42725669 7.98915813,6.03365202 C9.32369765,4.86697235 10.7985628,4.70822803 12.3321815,5.54732609 Z M12.0203906,0.632319818 C12.9025258,1.14593386 13.7113565,1.79171252 14.53239,2.40675985 C14.8863809,2.67197534 15.0690279,3.06233176 15.0559472,3.52596033 C15.0545645,3.87986902 14.6825766,4.13090422 14.3027534,3.97904232 C14.0237131,3.86750559 13.7639866,3.68345003 13.5270635,3.49210492 C12.7656394,2.87721268 12.0010768,2.28715809 11.0879297,1.89217091 C10.2167024,1.51533007 9.44458985,1.61000557 8.70340133,2.1484351 C8.17286478,2.53378411 7.63583177,2.91669589 7.14706128,3.35256214 C6.02122115,4.35637062 4.79194252,4.4130031 3.46431721,3.85908605 C2.2702204,3.36091521 1.25438106,2.61131034 0.385260656,1.65480638 C0.258009138,1.51470968 0.152397841,1.3440146 0.076064488,1.16990739 C-0.0548083646,0.871412574 -0.0279226956,0.574978325 0.24420417,0.36526533 C0.528292415,0.146290842 0.824320091,0.192753404 1.08848002,0.417355689 C1.45122805,0.725710233 1.79628641,1.05593342 2.16566258,1.35571333 C2.978773,2.01571657 3.88035373,2.50750629 4.93975883,2.56475915 C5.28516835,2.58343724 5.6939622,2.49170857 5.98096946,2.30499421 C6.59242639,1.90741471 7.11870513,1.37718315 7.72614567,0.972026067 C8.25290726,0.62068756 8.81482872,0.266313588 9.41237094,0.0931369613 C10.3356577,-0.174515758 11.2344731,0.174762178 12.0203906,0.632319818 Z" id="合并形状"></path>
                    </g>
                </g>
            </g>
        </g>
    </g>
</svg>