<?xml version="1.0" encoding="UTF-8"?>
<svg width="15px" height="14px" viewBox="0 0 15 14" version="1.1" xmlns="http://www.w3.org/2000/svg" xmlns:xlink="http://www.w3.org/1999/xlink">
    <!-- Generator: Sketch 57.1 (83088) - https://sketch.com -->
    <title>供浆智能优化@1x</title>
    <desc>Created with Sketch.</desc>
    <defs>
        <linearGradient x1="50%" y1="16.665914%" x2="50%" y2="100%" id="linearGradient-1">
            <stop stop-color="#69FFF9" offset="0%"></stop>
            <stop stop-color="#00FF88" offset="96.9404805%"></stop>
        </linearGradient>
    </defs>
    <g id="V2.1正式版" stroke="none" stroke-width="1" fill="none" fill-rule="evenodd">
        <g id="首页二级导航" transform="translate(-388.000000, -197.000000)" fill="#B0D5DC" fill-rule="nonzero">
            <g id="编组" transform="translate(357.000000, 180.000000)">
                <g id="供浆智能优化" transform="translate(31.000000, 17.000000)">
                    <path d="M4.34461402,5.84223919 C4.59389516,5.84223919 4.77195311,6.02035623 4.77195311,6.2697201 L4.77195311,7.62340967 C4.77195311,10.7226463 7.30037602,13.2519084 10.3985844,13.2519084 L12.1435523,13.2519084 L12.1435523,14 L14.6363636,14 L14.6363636,7.51653944 L12.1435523,7.51653944 L12.1435523,8.15776081 L10.2917496,8.15776081 C10.0424685,8.15776081 9.86441053,7.97964377 9.86441053,7.7302799 L9.86441053,6.37659033 C9.86441053,3.27735369 7.33598761,0.748091603 4.23777925,0.748091603 L2.49281132,0.748091603 L2.49281132,0 L0,0 L0,6.48346056 L2.49281132,6.48346056 L2.49281132,5.84223919 L4.34461402,5.84223919 Z M10.3273612,8.87022901 L12.1485649,8.87022901 L12.1485649,12.5750636 L10.434196,12.5750636 C7.72771511,12.5750636 5.51979651,10.3664122 5.51979651,7.65903308 L5.51979651,6.30534351 C5.51979651,5.66412214 5.02123424,5.1653944 4.38022561,5.1653944 L2.47413771,5.1653944 L2.47413771,1.42493639 L4.27339084,1.42493639 C6.97987171,1.42493639 9.18779031,3.63358779 9.18779031,6.34096692 L9.18779031,7.7302799 C9.18779031,8.37150127 9.68635258,8.87022901 10.3273612,8.87022901 Z M13.9597434,13.2875318 L12.8913957,13.2875318 L12.8913957,8.19338422 L13.9597434,8.19338422 L13.9597434,13.2875318 Z M0.712231807,0.676844784 L1.78057952,0.676844784 L1.78057952,5.77099237 L0.712231807,5.77099237 L0.712231807,0.676844784 L0.712231807,0.676844784 Z" id="形状"></path>
                </g>
            </g>
        </g>
    </g>
</svg>