<?xml version="1.0" standalone="no"?><!DOCTYPE svg PUBLIC "-//W3C//DTD SVG 1.1//EN" "http://www.w3.org/Graphics/SVG/1.1/DTD/svg11.dtd"><svg t="1620463570656" class="icon" viewBox="0 0 1024 1024" version="1.1" xmlns="http://www.w3.org/2000/svg" p-id="8390" xmlns:xlink="http://www.w3.org/1999/xlink" width="200" height="200"><defs><style type="text/css"></style></defs><path d="M504.787121 16.587353c-278.279557 0-503.868569 225.589013-503.868569 503.868569 0 278.279557 225.589013 503.868569 503.868569 503.868569s503.868569-225.589013 503.868569-503.868569C1008.65569 242.176366 783.06567 16.587353 504.787121 16.587353zM504.787121 984.015006c-256.016628 0-463.559084-207.542456-463.559084-463.559084 0-256.016628 207.542456-463.559084 463.559084-463.559084s463.559084 207.542456 463.559084 463.559084C968.346205 776.47255 760.803749 984.015006 504.787121 984.015006z" p-id="8391" fill="#a8cdd4"></path><path d="M498.439385 143.415103c-130.549323 0-236.406063 105.855732-236.406063 236.405055 0 14.185916 11.496265 25.710398 25.70939 25.710398 14.185916 0 25.696289-11.524482 25.696289-25.710398l0 0c0.013101-102.178499 82.835993-185.013484 185.000384-185.013484 102.207724 0 185.026585 82.834985 185.026585 185.013484 0 102.180515-82.819869 185.016508-185.026585 185.016508-14.185916 0-25.682181 11.523474-25.682181 25.707374l0 141.334126c0 14.181885 11.496265 25.683189 25.682181 25.683189 14.213125 0 25.710398-11.501304 25.710398-25.683189L524.149783 614.856706c118.476632-12.815393 210.722874-113.15578 210.722874-235.036548C734.872657 249.271843 629.015917 143.415103 498.439385 143.415103z" p-id="8392" fill="#a8cdd4"></path><path d="M498.465586 800.734829c-25.434278 0-46.070719 20.637449-46.070719 46.070719 0 25.435285 20.637449 46.070719 46.070719 46.070719 25.457456 0 46.082812-20.635433 46.082812-46.070719C544.548398 821.372278 523.923042 800.734829 498.465586 800.734829z" p-id="8393" fill="#a8cdd4"></path><path d="M504.787121 16.459371c-277.981266 0-503.330437 225.348163-503.330437 503.32943 0 277.983282 225.349171 503.330437 503.330437 503.330437 277.982274 0 503.330437-225.347156 503.330437-503.330437C1008.117559 241.807534 782.769395 16.459371 504.787121 16.459371zM504.787121 970.571792c-248.960452 0-450.781984-201.820524-450.781984-450.782992 0-248.959444 201.821532-450.781984 450.781984-450.781984 248.96146 0 450.780977 201.82254 450.780977 450.781984C955.568098 768.751268 753.748581 970.571792 504.787121 970.571792z" p-id="8394" fill="#a8cdd4"></path></svg>