<?xml version="1.0" encoding="UTF-8"?>
<svg width="16px" height="13px" viewBox="0 0 16 13" version="1.1" xmlns="http://www.w3.org/2000/svg" xmlns:xlink="http://www.w3.org/1999/xlink">
    <!-- Generator: Sketch 57.1 (83088) - https://sketch.com -->
    <title>浆液劣化智能预判@1x</title>
    <desc>Created with Sketch.</desc>
    <g id="V2.1正式版" stroke="none" stroke-width="1" fill="none" fill-rule="evenodd" opacity="0.200000003">
        <g id="首页二级导航" transform="translate(-643.000000, -332.000000)" fill="#B0D5DC" fill-rule="nonzero">
            <g id="编组备份-5" transform="translate(616.000000, 313.000000)">
                <g id="浆液劣化智能预判" transform="translate(35.328358, 25.828358) rotate(-90.000000) translate(-35.328358, -25.828358) translate(28.828358, 17.828358)">
                    <path d="M10.8773979,0.171641791 L12.8283582,0.781625224 L12.8283582,1.73774636 L10.8719604,1.12776293 L7.7047724,1.12759735 C8.62611214,2.42553553 9.0901963,3.8398482 9.0901963,5.36122727 C9.0901963,6.56085681 8.77474552,7.26342838 7.96719359,8.34994461 C7.95592467,8.36510633 7.88141533,8.4652016 7.85992415,8.49415076 C7.23305757,9.33855583 7.0197078,9.80488272 7.0197078,10.5934383 C7.0197078,11.9451684 7.61182641,13.145233 8.82018429,14.215039 L10.8719604,14.2155207 L12.8283582,13.6055372 L12.8283582,14.5616584 L10.8773979,15.1716418 L1.02573237,15.1716418 L1.02535821,15.1686418 L0.828358209,15.1686718 L0.828358209,0.171641791 L10.8773979,0.171641791 Z M6.53098097,1.12817829 L1.83735821,1.12764179 L1.83735821,14.2146418 L7.51191524,14.2155188 C6.5588376,13.1385496 6.07549773,11.9271656 6.07549773,10.5934383 C6.07549773,9.57512137 6.36042113,8.95235323 7.09092679,7.96834371 C7.11284467,7.93881977 7.18756557,7.83844028 7.19850043,7.82372804 C7.90241879,6.87664501 8.14598623,6.33417191 8.14598623,5.36122727 C8.14598623,3.82659915 7.61108142,2.42025866 6.53098097,1.12817829 Z M5.37236916,12.6314099 C5.66569762,12.6314099 5.90348732,12.8596183 5.90348732,13.1411277 C5.90348732,13.422637 5.66569762,13.6508455 5.37236916,13.6508455 C5.07904069,13.6508455 4.84125099,13.422637 4.84125099,13.1411277 C4.84125099,12.8596183 5.07904069,12.6314099 5.37236916,12.6314099 Z M3.48394902,8.32712637 C3.77727748,8.32712637 4.01506719,8.5553348 4.01506719,8.83684416 C4.01506719,9.11835352 3.77727748,9.34656194 3.48394902,9.34656194 C3.19062056,9.34656194 2.95283086,9.11835352 2.95283086,8.83684416 C2.95283086,8.5553348 3.19062056,8.32712637 3.48394902,8.32712637 Z M6.31657922,6.06171399 C6.60990768,6.06171399 6.84769739,6.28992241 6.84769739,6.57143177 C6.84769739,6.85294113 6.60990768,7.08114956 6.31657922,7.08114956 C6.02325076,7.08114956 5.78546106,6.85294113 5.78546106,6.57143177 C5.78546106,6.28992241 6.02325076,6.06171399 6.31657922,6.06171399 Z M4.42815909,2.43705417 C4.72148755,2.43705417 4.95927725,2.6652626 4.95927725,2.94677196 C4.95927725,3.22828132 4.72148755,3.45648975 4.42815909,3.45648975 C4.13483063,3.45648975 3.89704093,3.22828132 3.89704093,2.94677196 C3.89704093,2.6652626 4.13483063,2.43705417 4.42815909,2.43705417 Z" id="合并形状"></path>
                </g>
            </g>
        </g>
    </g>
</svg>