<?xml version="1.0" encoding="UTF-8"?>
<svg width="25px" height="19px" viewBox="0 0 25 19" version="1.1" xmlns="http://www.w3.org/2000/svg" xmlns:xlink="http://www.w3.org/1999/xlink">
    <!-- Generator: Sketch 57.1 (83088) - https://sketch.com -->
    <title>信封@2x</title>
    <desc>Created with Sketch.</desc>
    <g id="V2.1正式版" stroke="none" stroke-width="1" fill="none" fill-rule="evenodd">
        <g id="首页" transform="translate(-1641.000000, -28.000000)" fill="#ABD0D7" fill-rule="nonzero">
            <g id="导航">
                <g id="编组-3" transform="translate(1641.000000, 13.000000)">
                    <g id="信封" transform="translate(0.000000, 15.000000)">
                        <path d="M25,17.2581185 C25,17.8439906 24.8884053,18.2513112 24.6596362,18.4772905 C24.4308671,18.7032697 24.0570249,18.8148644 23.5325298,18.8148644 L1.47026001,18.8148644 C1.06572925,18.8148644 0.733735061,18.7032697 0.471487552,18.4772905 C0.156232547,18.1983037 0,17.793773 0,17.2581185 L0,1.42841199 C0,1.04062045 0.153442692,0.705836372 0.457538221,0.424059794 C0.76163375,0.142283216 1.10199753,0 1.46747015,0 L23.5241603,0 C24.0151769,0 24.3834393,0.133913624 24.6289476,0.398950988 C24.8744559,0.663988353 24.9972101,1.00435216 24.9972101,1.43120187 L25,17.2581185 Z M8.00133913,9.39627272 L1.46468027,2.94052001 L1.46468027,16.0417364 L8.00133913,9.39627272 Z M22.4946993,1.39493359 L2.51367033,1.39493359 L10.8804821,9.75895546 C11.6142171,10.4926905 12.1526615,10.8553733 12.5013949,10.8553733 C12.8501283,10.8553733 13.3885727,10.4899007 14.1223078,9.75895546 L22.4946993,1.39493359 Z M22.4416918,17.2441692 L15.8771342,10.6796116 L14.8030354,11.7397612 C14.1753152,12.3591117 13.4081017,12.6715768 12.5013949,12.6715768 C11.5918982,12.6715768 10.8274746,12.3591117 10.1997545,11.7397612 L9.12565562,10.6796116 L2.56109809,17.2441692 L22.4416918,17.2441692 Z M23.5381096,16.0417364 L23.5381096,2.94052001 L17.0014507,9.39627272 L23.5381096,16.0417364 Z" id="形状"></path>
                    </g>
                </g>
            </g>
        </g>
    </g>
</svg>