<?xml version="1.0" encoding="UTF-8"?>
<svg width="18px" height="15px" viewBox="0 0 18 15" version="1.1" xmlns="http://www.w3.org/2000/svg" xmlns:xlink="http://www.w3.org/1999/xlink">
    <!-- Generator: Sketch 57.1 (83088) - https://sketch.com -->
    <title>目录、导航@2x</title>
    <desc>Created with Sketch.</desc>
    <g id="V2.1正式版" stroke="none" stroke-width="1" fill="none" fill-rule="evenodd">
        <g id="首页" transform="translate(-1861.000000, -460.000000)" fill="#ABD0D7" fill-rule="nonzero">
            <g id="目录、导航" transform="translate(1861.000000, 460.000000)">
                <path d="M16.6961324,5.85623686 L1.29580669,5.85623686 C0.585326932,5.85623686 0.00605517144,6.44843993 0.00605517144,7.17018743 C0.00605517144,7.89397834 0.58735163,8.48413801 1.29580669,8.48413801 L16.6961324,8.48413801 C17.4065932,8.48413801 17.9858839,7.89193493 17.9858839,7.17018743 C17.9858839,6.44843993 17.4045874,5.85623686 16.6961324,5.85623686 Z M16.6900772,11.7720988 L1.28975152,11.7720988 C0.579271761,11.7720988 0,12.3643019 0,13.0860494 C0,13.8098403 0.581296458,14.4 1.28975152,14.4 L16.6900772,14.4 C17.400538,14.4 17.9798287,13.8077969 17.9798287,13.0860494 C17.9798287,12.3622392 17.400538,11.7720988 16.6900772,11.7720988 Z M16.7102485,0 L1.30994173,0 C0.599461973,0 0.0201902123,0.592203077 0.0201902123,1.31395058 C0.0201902123,2.03776076 0.601486671,2.62790115 1.30994173,2.62790115 L16.7102485,2.62790115 C17.4207282,2.62790115 18,2.03569808 18,1.31395058 C18,0.590140391 17.4187035,0 16.7102485,0 Z" id="形状"></path>
            </g>
        </g>
    </g>
</svg>