<?xml version="1.0" encoding="UTF-8"?>
<svg width="15px" height="15px" viewBox="0 0 15 15" version="1.1" xmlns="http://www.w3.org/2000/svg" xmlns:xlink="http://www.w3.org/1999/xlink">
    <!-- Generator: Sketch 57.1 (83088) - https://sketch.com -->
    <title>氧化效果智能调整@1x</title>
    <desc>Created with Sketch.</desc>
    <g id="V2.1正式版" stroke="none" stroke-width="1" fill="none" fill-rule="evenodd" opacity="0.200000003">
        <g id="首页二级导航" transform="translate(-389.000000, -232.000000)" fill="#B0D5DC" fill-rule="nonzero">
            <g id="编组备份-3" transform="translate(357.000000, 215.000000)">
                <g id="氧化效果智能调整" transform="translate(32.000000, 17.000000)">
                    <path d="M12.6806159,12.6922288 C9.66639485,15.7059499 4.73795709,15.5790318 1.87846805,12.388966 C-0.581490568,9.6443868 -0.631565916,5.40699871 1.76483994,2.61086002 C4.34129677,-0.396695598 8.76929164,-0.852582454 11.8818731,1.48649005 C12.0950241,1.6463533 12.1118191,1.96194322 11.921744,2.1520104 C11.7629139,2.30769461 11.5135901,2.32237711 11.3389414,2.18744254 C8.7497766,0.250033005 5.10245224,0.496139898 2.79341197,2.80518017 C0.142612591,5.45581814 0.25029937,9.78916623 3.05139478,12.3087429 C5.56274615,14.5678506 9.4884654,14.5091732 11.9362491,12.1776443 C14.3492559,9.87957292 14.643301,6.15533917 12.6714987,3.52001432 C12.5353517,3.3440726 12.5502471,3.09457417 12.7069518,2.93548499 C12.8962133,2.74622349 13.2122472,2.76315221 13.3722915,2.97623663 C15.5822454,5.91699046 15.3064595,10.0663852 12.6806159,12.6922288 Z M6.53615454,4.59677419 C7.37260136,4.59677419 8.02979972,4.87587757 8.50776933,5.43409269 C8.96495765,5.97143995 9.19354839,6.66267728 9.19354839,7.50782541 C9.19354839,8.34253961 8.96495765,9.02856005 8.50776933,9.56590731 C8.02460439,10.1241224 7.36480841,10.4032258 6.52836159,10.4032258 C5.69711009,10.4032258 5.03991173,10.1241224 4.5567468,9.56590731 C4.09955848,9.03899397 3.87096774,8.35297353 3.87096774,7.50782541 C3.87096774,6.65746032 4.09955848,5.96883143 4.5567468,5.44191809 C5.03991173,4.87848601 5.69970772,4.59677419 6.53615454,4.59677419 Z M10.3167776,7.98387097 C10.5498568,7.98387097 10.7443397,8.05222459 10.8973771,8.18950434 C11.0493378,8.32788122 11.1258941,8.50797293 11.1258941,8.72518476 C11.1258941,8.93270138 11.046329,9.12511521 10.8887551,9.30097675 C10.8028398,9.39365542 10.6447355,9.51671197 10.412436,9.672547 C10.2571622,9.7752845 10.1458902,9.86797428 10.0787686,9.94848349 L11.1290323,9.94848349 L11.1290323,10.4032258 L9.43548387,10.4032258 L9.43548387,10.3377387 C9.43548387,10.0913239 9.51553243,9.87675163 9.67426419,9.69760702 C9.76053245,9.59790044 9.93541589,9.4579736 10.2011104,9.27487076 C10.3336566,9.1829547 10.4328447,9.10184958 10.4969467,9.03379349 C10.5851105,8.93420871 10.6279762,8.83097629 10.6279762,8.72204138 C10.6279762,8.61732302 10.6017317,8.54354582 10.55225,8.49716546 C10.5009187,8.45072428 10.4190676,8.42603976 10.304225,8.42603976 C10.1860371,8.42603976 10.1023375,8.46414859 10.0449572,8.54246411 C9.98573093,8.61796892 9.95174344,8.73806953 9.94591361,8.90352391 L9.94368755,8.96670113 L9.44693771,8.96670113 L9.4480455,8.90012274 C9.4524867,8.63320592 9.53135739,8.41538488 9.68473629,8.25045942 C9.84598285,8.0730194 10.058213,7.98387097 10.3167776,7.98387097 Z M6.53615454,5.16802887 C5.89193462,5.16802887 5.38799596,5.3897465 5.02432343,5.83318842 C4.68143219,6.25576248 4.50998914,6.81396923 4.50998914,7.50782541 C4.50998914,8.19646462 4.68143219,8.75206292 5.02432343,9.17463699 C5.38280064,9.61286194 5.88414168,9.83197113 6.52836159,9.83197113 C7.16738618,9.83197113 7.66872722,9.61807883 8.03239975,9.1902878 C8.38048632,8.76249677 8.55452699,8.20168158 8.55452699,7.50782541 C8.55452699,6.8035353 8.38048632,6.23750323 8.03239975,5.8097122 C7.67392255,5.38192117 7.17517913,5.16802887 6.53615454,5.16802887 Z" id="合并形状"></path>
                </g>
            </g>
        </g>
    </g>
</svg>