<?xml version="1.0" encoding="UTF-8"?>
<svg width="15px" height="15px" viewBox="0 0 15 15" version="1.1" xmlns="http://www.w3.org/2000/svg" xmlns:xlink="http://www.w3.org/1999/xlink">
    <!-- Generator: Sketch 57.1 (83088) - https://sketch.com -->
    <title>形状@2x</title>
    <desc>Created with Sketch.</desc>
    <g id="V2.1正式版" stroke="none" stroke-width="1" fill="none" fill-rule="evenodd">
        <g id="账号管理" transform="translate(-32.000000, -144.000000)" fill="#FFFFFF" fill-rule="nonzero">
            <g id="编组-4-&lt;v8&gt;" transform="translate(0.000000, 72.000000)">
                <g id="编组备份" transform="translate(0.000000, 56.000000)">
                    <g id="组织机构" transform="translate(32.000000, 16.000000)">
                        <path d="M14.0625,9.375 L12.1875,9.375 L12.1875,7.96875 C12.1875,7.45132212 11.7674279,7.03125 11.25,7.03125 L7.96875,7.03125 L7.96875,5.625 L9.375,5.625 C9.89242788,5.625 10.3125,5.20492788 10.3125,4.6875 L10.3125,0.9375 C10.3125,0.420072115 9.89242788,0 9.375,0 L5.625,0 C5.10757212,0 4.6875,0.420072115 4.6875,0.9375 L4.6875,4.6875 C4.6875,5.20492788 5.10757212,5.625 5.625,5.625 L7.03125,5.625 L7.03125,7.03125 L3.75,7.03125 C3.23257212,7.03125 2.8125,7.45132212 2.8125,7.96875 L2.8125,9.375 L0.9375,9.375 C0.420072115,9.375 0,9.79507212 0,10.3125 L0,14.0625 C0,14.5799279 0.420072115,15 0.9375,15 L4.6875,15 C5.20492788,15 5.625,14.5799279 5.625,14.0625 L5.625,10.3125 C5.625,9.79507212 5.20492788,9.375 4.6875,9.375 L3.75,9.375 L3.75,7.96875 L11.25,7.96875 L11.25,9.375 L10.3125,9.375 C9.79507212,9.375 9.375,9.79507212 9.375,10.3125 L9.375,14.0625 C9.375,14.5799279 9.79507212,15 10.3125,15 L14.0625,15 C14.5799279,15 15,14.5799279 15,14.0625 L15,10.3125 C15,9.79507212 14.5799279,9.375 14.0625,9.375 Z M5.625,4.6875 L5.625,0.9375 L9.375,0.9375 L9.375,4.6875 L5.625,4.6875 Z M4.6875,10.3125 L4.6875,14.0625 L0.9375,14.0625 L0.9375,10.3125 L4.6875,10.3125 Z M14.0625,14.0625 L10.3125,14.0625 L10.3125,10.3125 L14.0625,10.3125 L14.0625,14.0625 Z" id="形状"></path>
                    </g>
                </g>
            </g>
        </g>
    </g>
</svg>