<?xml version="1.0" encoding="UTF-8"?>
<svg width="23px" height="23px" viewBox="0 0 23 23" version="1.1" xmlns="http://www.w3.org/2000/svg" xmlns:xlink="http://www.w3.org/1999/xlink">
    <!-- Generator: Sketch 57.1 (83088) - https://sketch.com -->
    <title>个人@2x</title>
    <desc>Created with Sketch.</desc>
    <g id="V2.1正式版" stroke="none" stroke-width="1" fill="none" fill-rule="evenodd">
        <g id="首页" transform="translate(-1695.000000, -25.000000)" fill-rule="nonzero">
            <g id="导航">
                <g id="个人" transform="translate(1695.000000, 25.000000)">
                    <rect id="矩形" fill="#000000" opacity="0" x="0" y="0" width="23" height="23"></rect>
                    <path d="M11.5,23 C17.840916,23 23,17.84087 23,11.5 C23,5.15913 17.840916,0 11.5,0 C5.159084,0 0,5.15913 0,11.5 C0,17.84087 5.159084,23 11.5,23 L11.5,23 Z M11.5,1.4375 C17.048842,1.4375 21.562546,5.951158 21.562546,11.5 C21.562546,17.048704 17.048842,21.562546 11.5,21.562546 C5.951158,21.562546 1.4375,17.048704 1.4375,11.5 C1.4375,5.951158 5.951158,1.4375 11.5,1.4375 L11.5,1.4375 Z M11.5,4.492084 C13.792088,4.492084 15.65081,6.335074 15.65081,8.609222 C15.65081,10.88268 13.792916,12.725532 11.5,12.725532 C9.207222,12.725532 7.349926,10.882542 7.349926,8.609222 C7.349926,6.335074 9.207958,4.492084 11.5,4.492084 L11.5,4.492084 Z M11.5,11.548852 C13.137416,11.548852 14.464884,10.232194 14.464884,8.608394 C14.464884,6.984042 13.137416,5.668074 11.5,5.668074 C9.862584,5.668074 8.535116,6.984778 8.535116,8.608394 C8.535116,10.232884 9.862584,11.548852 11.5,11.548852 L11.5,11.548852 Z M11.5,11.548852 C14.775384,11.548852 17.429768,14.181662 17.429768,17.429768 L16.243704,17.429768 C16.243704,14.832194 14.119884,12.725532 11.5,12.725532 C8.880116,12.725532 6.756204,14.832148 6.756204,17.429768 L5.570278,17.429768 C5.570278,14.181662 8.224616,11.548852 11.5,11.548852 L11.5,11.548852 Z" id="形状" fill="#ABD0D7"></path>
                </g>
            </g>
        </g>
    </g>
</svg>