<?xml version="1.0" encoding="UTF-8"?>
<svg width="14px" height="14px" viewBox="0 0 14 14" version="1.1" xmlns="http://www.w3.org/2000/svg" xmlns:xlink="http://www.w3.org/1999/xlink">
    <!-- Generator: Sketch 57.1 (83088) - https://sketch.com -->
    <title>部分设备智能管控@1x</title>
    <desc>Created with Sketch.</desc>
    <g id="V2.1正式版" stroke="none" stroke-width="1" fill="none" fill-rule="evenodd">
        <g id="首页二级导航" transform="translate(-644.000000, -134.000000)" fill="#B0D5DC" fill-rule="nonzero">
            <g id="编组-4-" transform="translate(328.000000, 97.000000)">
                <g id="编组备份" transform="translate(283.000000, 20.000000)">
                    <g id="部分设备智能管控" transform="translate(33.000000, 17.000000)">
                        <path d="M6.7016007,4.9 C7.00365726,4.9 7.27722239,5.02176693 7.47517242,5.21829185 C7.6730946,5.41498269 7.79577767,5.68658362 7.79577766,5.98636225 L7.79577766,8.23706624 L11.8181668,8.2372045 L11.8181668,8.23547624 C12.2272821,8.23547624 12.5977404,8.40017336 12.8659443,8.66632679 C13.134176,8.93264613 13.3,9.30032499 13.3,9.70663412 L13.3,12.5288698 C13.3,12.9352066 13.1341759,13.3030513 12.8659443,13.5691771 C12.5977404,13.8355241 12.2274075,14 11.8181668,14 L1.48172178,14 C1.07243939,14 0.702120338,13.8355241 0.433902578,13.5691771 C0.165837993,13.3030513 0,12.9352204 0,12.5288698 L0,9.70663412 C0,9.30046325 0.165837979,8.93250786 0.433902578,8.66632679 C0.701995019,8.40017336 1.07243939,8.23533797 1.48172178,8.23533797 L5.60915048,8.23533797 L5.60915048,5.98636225 L5.6074098,5.98636225 C5.6074098,5.68658361 5.73005109,5.41498269 5.92802897,5.21829185 C6.12596507,5.02176693 6.39965553,4.9 6.7016007,4.9 Z M6.7016007,5.7899889 C6.64907263,5.78987066 6.59867358,5.81059237 6.56160832,5.84754767 C6.52452251,5.8843704 6.50367229,5.93430181 6.50363674,5.98637607 L6.50189606,5.98637607 L6.50189606,9.12521678 L1.48172178,9.12521678 C1.32639708,9.12503275 1.17739603,9.18628498 1.06766295,9.29543053 C0.957686931,9.40438541 0.896026999,9.55239509 0.89633674,9.70664794 L0.89633674,12.5288698 C0.895973247,12.683098 0.957641528,12.8310878 1.06764903,12.9399766 C1.17735417,13.0491636 1.32637339,13.1104233 1.48170785,13.110191 L11.8181529,13.110191 C11.9734886,13.1104294 12.1225101,13.0491688 12.2322117,12.9399766 C12.3421775,12.8310501 12.4038762,12.6830956 12.4036484,12.5288698 L12.4036484,9.70663412 C12.403887,9.5524062 12.3421867,9.40444772 12.2322117,9.29552731 C12.1224985,9.18635563 11.9734821,9.12510705 11.8181529,9.12534122 L11.8181529,9.12361295 L6.89941147,9.12344703 L6.89941147,5.98636225 C6.89943854,5.93423363 6.87856993,5.88423741 6.84141205,5.84740941 C6.80436985,5.8105465 6.75404659,5.78987892 6.7016007,5.7899889 Z M2.58958365,10.2171758 C2.85346042,10.2171476 3.09251947,10.324652 3.26560934,10.497947 C3.40975693,10.6424418 3.50816109,10.8329089 3.53695838,11.0453226 L3.54569302,11.1753534 C3.54569302,11.4397723 3.43858644,11.6793096 3.26560934,11.8525904 C3.09251947,12.0260407 2.85343223,12.1333333 2.58958365,12.1333333 C2.32567868,12.1333333 2.08661963,12.0260407 1.91365661,11.8525904 C1.74060902,11.6793096 1.63333333,11.4397723 1.63333333,11.1752122 C1.63333333,10.9109346 1.74059493,10.6713972 1.91365661,10.497947 C2.08661963,10.3246662 2.32569278,10.2171758 2.58958365,10.2171758 Z M4.94323651,10.2171758 C5.20714148,10.2171476 5.44617234,10.324652 5.6192622,10.497947 C5.79236616,10.6713408 5.89935999,10.9109346 5.89935999,11.1752122 C5.89935999,11.4389391 5.79238025,11.6780811 5.6192622,11.8515172 L5.6180643,11.8525904 C5.44497443,12.0260407 5.20629589,12.1333333 4.94323651,12.1333333 C4.67947247,12.1333333 4.44041342,12.0260407 4.26719673,11.8525904 C4.09423371,11.6793096 3.98709895,11.4397723 3.98709895,11.1752122 C3.98709895,10.9109346 4.09423371,10.6713972 4.26719673,10.497947 C4.4402725,10.3246662 4.67933156,10.2171758 4.94323651,10.2171758 Z M2.589485,10.8232137 C2.49631025,10.8231863 2.40694689,10.8602763 2.34108231,10.9263125 C2.27514446,10.9922957 2.23811013,11.0818508 2.23814692,11.1752263 C2.2380201,11.2686419 2.27506069,11.3582549 2.3410682,11.4242249 C2.40693162,11.4903561 2.49637088,11.5274768 2.58961183,11.5273802 C2.68279888,11.5274764 2.77218102,11.490352 2.83797224,11.4242249 C2.88747187,11.3747781 2.92070715,11.3120461 2.93422148,11.2443754 L2.94104823,11.1752263 C2.94104823,11.0780304 2.90167247,10.9900273 2.83797224,10.9263125 C2.77211954,10.8602067 2.68270046,10.8231062 2.589485,10.8232137 Z M4.94323651,10.8232137 C4.85005851,10.8231073 4.76067923,10.8602101 4.6948761,10.9263125 C4.62875584,10.9921859 4.59164175,11.0817989 4.5917856,11.1752263 C4.59164739,11.2686775 4.62875889,11.3583147 4.6948761,11.4242249 C4.76061586,11.490429 4.85003148,11.5275672 4.94323651,11.5273807 C5.04063303,11.5273807 5.12874228,11.4882926 5.19227339,11.4247756 C5.25812581,11.3585189 5.29496779,11.2687345 5.29467467,11.1752263 C5.29467467,11.0780304 5.25528306,10.9900273 5.19172377,10.9263125 C5.12587106,10.8602067 5.03645197,10.8231062 4.94323651,10.8232137 Z M6.90469611,1.86666667 C7.96199301,1.86666667 8.91915937,2.29602072 9.61208254,2.99016076 C10.3048507,3.68445613 10.7333333,4.64356572 10.7333333,5.70309093 C10.7333333,5.95413702 10.5302818,6.15745358 10.2798779,6.15745358 C10.0293472,6.15745358 9.82630977,5.95415115 9.82630977,5.70311918 C9.82630977,4.8943294 9.4992824,4.16244348 8.97085239,3.63282914 C8.4421687,3.10318657 7.71173006,2.77564612 6.90469611,2.77564613 C6.09752124,2.77563202 5.36709669,3.10318658 4.83855393,3.63282914 C4.30995481,4.16244347 3.98306836,4.89432938 3.98306836,5.70311918 C3.98306836,5.95415115 3.77987592,6.15745358 3.52948611,6.15745358 C3.27895538,6.15745358 3.07604478,5.95415115 3.07604478,5.70311918 C3.07604478,4.64343864 3.50440062,3.68447026 4.19715466,2.99016076 C4.89009192,2.29602072 5.84713144,1.86666667 6.90469611,1.86666667 Z M6.65003536,5.68434189e-14 C8.22892836,5.68434189e-14 9.65819228,0.628849664 10.6925526,1.64554371 C11.7271109,2.66240463 12.3666667,4.06716557 12.3666667,5.6192523 C12.3666667,5.8664593 12.1628984,6.06666667 11.9113993,6.06666667 C11.6600417,6.06666667 11.4561036,5.86647321 11.4561037,5.61928012 C11.4561037,4.31421961 10.9184745,3.13312415 10.048767,2.27839809 C9.17921516,1.42365813 7.9776132,0.895065098 6.65003536,0.895065098 C5.3223302,0.895065098 4.12071412,1.42367203 3.25114808,2.27839809 C2.38158205,3.13312415 1.84381146,4.31421961 1.84381146,5.61928012 C1.84381146,5.86647321 1.63998659,6.06666667 1.38850166,6.06666667 C1.13714406,6.06666667 0.933333333,5.86647321 0.933333333,5.61928012 C0.933333333,4.06729072 1.57297392,2.66241855 2.6074474,1.64557153 C3.64183601,0.628849664 5.07111407,5.68434189e-14 6.65003536,5.68434189e-14 Z" id="合并形状"></path>
                    </g>
                </g>
            </g>
        </g>
    </g>
</svg>