<?xml version="1.0" encoding="UTF-8"?>
<svg width="16px" height="16px" viewBox="0 0 16 16" version="1.1" xmlns="http://www.w3.org/2000/svg" xmlns:xlink="http://www.w3.org/1999/xlink">
    <!-- Generator: Sketch 57.1 (83088) - https://sketch.com -->
    <title>角色管理-2@2x</title>
    <desc>Created with Sketch.</desc>
    <g id="V2.1正式版" stroke="none" stroke-width="1" fill="none" fill-rule="evenodd">
        <g id="账号管理" transform="translate(-32.000000, -200.000000)" fill-rule="nonzero">
            <g id="编组-4-&lt;v8&gt;" transform="translate(0.000000, 72.000000)">
                <g id="编组备份-2" transform="translate(0.000000, 112.000000)">
                    <g id="角色管理-2" transform="translate(32.000000, 16.000000)">
                        <rect id="矩形" fill="#000000" opacity="0" x="0" y="0" width="16" height="16"></rect>
                        <path d="M11.6597104,10.4209189 C10.8064356,10.4209189 10.1130784,11.1142761 10.1130784,11.967551 C10.1130784,12.8208258 10.8064356,13.5153253 11.6597104,13.5153253 C12.5141275,13.5153253 13.2074848,12.8208259 13.2074848,11.967551 C13.2074848,11.1142761 12.5141275,10.4209189 11.6597104,10.4209189 Z M11.7122548,12.7934116 C11.4355675,12.7932074 11.1800067,12.6454079 11.0418398,12.4056876 C10.9036728,12.1659674 10.9038905,11.8707455 11.0424109,11.6312293 C11.1809313,11.3917131 11.4367098,11.2442907 11.7133971,11.2444946 C12.1411186,11.2448102 12.4875997,11.5918027 12.4872844,12.0195242 C12.4869688,12.4472457 12.1399763,12.7937268 11.7122548,12.7934116 L11.7122548,12.7934116 Z M15.9055238,11.2022308 C15.8461258,10.8938182 15.6462288,10.6927789 15.3903606,10.6927789 L15.353808,10.6927789 C14.8643317,10.6940473 14.4659823,10.2992729 14.4628382,9.80980509 C14.4628382,9.68187098 14.5199517,9.52423788 14.5416548,9.47512031 C14.6624323,9.18773128 14.5605246,8.85508912 14.2994938,8.68467025 L13.2577446,8.11239355 C12.9967892,8.00638017 12.6977869,8.06564188 12.4969935,8.26317303 C12.3667748,8.39567622 12.0218096,8.66867848 11.7842177,8.66867848 C11.5443412,8.66867848 11.1982338,8.38996488 11.0680151,8.25517716 C10.8688579,8.05586207 10.5701267,7.99431895 10.3084063,8.09868631 L10.2889878,8.1066822 L9.22896225,8.68352798 L9.20383234,8.69951975 C8.95691587,8.87289693 8.8653831,9.19564528 8.98451672,9.47283578 C8.99251259,9.49225436 9.06333327,9.66245242 9.06333327,9.80980509 C9.06333327,10.2964116 8.66353916,10.6927789 8.17236355,10.6927789 L8.13124186,10.6927789 C7.8799427,10.6927789 7.68004566,10.892676 7.62178995,11.2022308 C7.57074205,11.4728449 7.5413308,11.7470952 7.53383525,12.0223799 C7.53383525,12.3684874 7.6126518,12.7956959 7.62178995,12.8448135 C7.68004567,13.1532261 7.87994272,13.3531232 8.1369532,13.3531231 L8.17122128,13.3531231 C8.66353917,13.3531231 9.06333327,13.7494904 9.06333327,14.236097 C9.06333327,14.3640311 9.00621983,14.5216642 8.98565898,14.5707818 C8.86466216,14.8579007 8.96606701,15.1904701 9.22667772,15.3612318 L10.2490084,15.9266549 C10.5127423,16.0356451 10.8163041,15.9722143 11.0143285,15.7667373 C11.1399781,15.6308073 11.4975082,15.3338174 11.7419538,15.3338174 C11.9886839,15.3338174 12.3427872,15.6308073 12.4741481,15.7758754 C12.6786069,15.989288 12.9955946,16.050212 13.2645982,15.9277972 L14.2983515,15.3612318 L14.3234814,15.3452401 C14.5702177,15.1722597 14.6617707,14.8499169 14.5427971,14.5730663 C14.4970241,14.4661574 14.469977,14.3521733 14.4628382,14.236097 C14.4628382,13.7494904 14.8626323,13.3531231 15.353808,13.3531231 L15.3949296,13.3531231 C15.6462288,13.3531231 15.8461258,13.1532261 15.9055238,12.8448135 C15.9055238,12.8402444 15.9934785,12.3867637 15.9934785,12.0223799 C15.9934785,11.6774147 15.914662,11.2502061 15.9055238,11.2022308 L15.9055238,11.2022308 Z M15.1173583,12.5649576 C14.2745907,12.67507 13.644124,13.39302 13.6438315,14.2429506 C13.6438315,14.4405631 13.692949,14.6278952 13.735213,14.754687 L12.9927382,15.1659038 C12.8967656,15.0714954 12.7944872,14.9837191 12.6866101,14.903182 C12.358779,14.661021 12.0412282,14.537656 11.7419538,14.537656 C11.4461061,14.537656 11.1308399,14.6587365 10.8052933,14.8974707 C10.6984449,14.9759211 10.5969392,15.0613996 10.5014498,15.1533389 L9.79210081,14.7569716 C9.83436477,14.6290375 9.88234005,14.4405631 9.88234005,14.2429506 C9.88234005,13.3862489 9.24609628,12.6734732 8.40995547,12.5638153 C8.38038219,12.3851185 8.36320715,12.2045898 8.35855338,12.0235222 C8.35855338,11.844186 8.38825236,11.619159 8.40995547,11.4820867 C9.25270077,11.3713939 9.88269613,10.6529353 9.88234005,9.80295148 C9.88234005,9.60648123 9.83436475,9.41914914 9.79210081,9.2923573 L10.5585632,8.87200234 C10.6248148,8.93368486 10.7321881,9.02849317 10.8624068,9.12101697 C11.1845266,9.35061302 11.4952237,9.46712444 11.7842177,9.46712444 C12.0709272,9.46712444 12.3781975,9.35289755 12.6980328,9.12787058 C12.8282515,9.03648906 12.9344825,8.94510756 13.0007341,8.88342503 L13.735213,9.29121503 C13.6783464,9.45640298 13.6475175,9.62943042 13.6438315,9.80409375 C13.6438315,10.6607954 14.2812175,11.3724289 15.1173583,11.4820867 C15.1379191,11.6225858 15.1676181,11.8476128 15.1676181,12.0235222 C15.1676181,12.2005738 15.1379191,12.4244585 15.116216,12.5649576 L15.1173583,12.5649576 Z M1.05488619,14.8449263 L1.05488619,13.9539566 C1.05488619,10.9200904 3.39882192,8.42194841 6.38471275,8.139808 L6.39156638,8.139808 C6.57432939,8.12267397 6.76051922,8.11239355 6.94785131,8.11239355 L7.03123694,8.11467808 C7.69146834,8.06327598 8.69095361,7.90906969 9.21297048,7.44302398 L9.46883872,7.2442692 C10.4589429,6.48344178 11.0396435,5.30600387 11.0406012,4.05733905 C11.041743,1.81849205 9.20497461,0 6.94670905,0 C4.68844348,0 2.85395967,1.81963431 2.85395967,4.05619677 C2.85395967,5.30469664 3.42737864,6.46638409 4.42572164,7.2442692 L4.68158986,7.44302398 L4.38003088,7.56296222 C1.72082894,8.61613413 0.00171428125,11.1245566 0.00171428125,13.9528143 L0.00171428125,15.3669432 C0.00360122452,15.6566919 0.239690418,15.890226 0.5294425,15.8889652 L8.23633059,15.8889652 C7.98443838,15.5666097 7.77056334,15.2162839 7.59894456,14.8449263 L1.05717072,14.8449263 L1.05488619,14.8449263 Z M3.92198106,4.02421325 C3.92198106,2.37363472 5.28585009,1.0314688 6.96498534,1.0314688 C8.64297831,1.0314688 10.0079896,2.37363472 10.0079896,4.02421325 C10.0079896,5.6736495 8.64297831,7.01581542 6.96498534,7.01581542 C5.28585009,7.01581542 3.9208388,5.6736495 3.9208388,4.02307097 L3.92198106,4.02421325 Z" id="形状" fill="#FFFFFF"></path>
                    </g>
                </g>
            </g>
        </g>
    </g>
</svg>