<?xml version="1.0" encoding="UTF-8"?>
<svg width="17px" height="12px" viewBox="0 0 17 12" version="1.1" xmlns="http://www.w3.org/2000/svg" xmlns:xlink="http://www.w3.org/1999/xlink">
    <!-- Generator: Sketch 57.1 (83088) - https://sketch.com -->
    <title>出口SO2智能预测@1x</title>
    <desc>Created with Sketch.</desc>
    <g id="V2.1正式版" stroke="none" stroke-width="1" fill="none" fill-rule="evenodd">
        <g id="首页二级导航" transform="translate(-390.000000, -334.000000)" fill="rgba(176, 213, 220,0.3)" fill-rule="nonzero">
            <g id="编组备份-6" transform="translate(359.000000, 313.000000)">
                <g id="出口SO2智能预测" transform="translate(31.000000, 21.000000)">
                    <path d="M0.933333333,0 L12.3666667,0 L12.3666667,0.920840062 L0.933,0.92 L0.933,11.047 L12.3666667,11.0476575 L12.3666667,11.9684976 L0.933,11.968 L0.933333333,11.9878837 L0,11.9878837 L0,0 L0.933333333,0 Z M12.6320261,10.3424879 L12.6320261,12 L11.9,12 L11.9,10.3424879 L12.6320261,10.3424879 Z M14.746703,3.99596123 L16.8,6.06444051 L16.752,6.111 L16.8,6.15840829 L14.7466848,8.226979 L14.2333333,7.70983631 L15.438,6.495 L11.6433333,6.49555734 L11.6433333,5.7588853 L15.469,5.758 L14.2333333,4.5131039 L14.746703,3.99596123 Z M6.38394268,4.23101777 C6.8189211,4.23101777 7.16900255,4.38904597 7.43436488,4.7049232 C7.69966793,5.02086015 7.83228981,5.43217543 7.83228981,5.93874958 C7.83228981,6.48760791 7.69622936,6.92293201 7.42422704,7.24466213 C7.15216544,7.56645198 6.78856688,7.72728718 6.33343135,7.72728718 C5.88902652,7.72728718 5.53283865,7.56925898 5.26486776,7.25338175 C4.99683757,6.9374448 4.86285212,6.52618925 4.86285212,6.01955538 C4.86285212,5.47356377 4.99950543,5.03901608 5.2729306,4.71579287 C5.54629648,4.39262938 5.91659432,4.23101777 6.38394268,4.23101777 Z M9.26652696,4.23107749 C9.54795569,4.23107749 9.7701581,4.31337638 9.93313421,4.47785471 C10.096051,4.64239277 10.1775687,4.86366808 10.1775687,5.14174038 C10.1775687,5.35136963 10.1253381,5.5569974 10.0209955,5.75862371 C9.91659353,5.96030974 9.71899463,6.2168816 9.42808021,6.52845874 L8.71505234,7.28181011 L8.71505234,7.29052973 L10.1492302,7.29052973 L10.1492302,7.6704902 L8.2463997,7.6704902 L8.2463997,7.29924935 L9.15542575,6.31871005 C9.40596668,6.04792401 9.57356707,5.83357661 9.65840475,5.67554841 C9.74324244,5.51757994 9.78563165,5.35417663 9.78563165,5.18533849 C9.78563165,4.99314848 9.73577246,4.84569133 9.63617266,4.74308647 C9.53645428,4.64048162 9.39244957,4.58917919 9.20392137,4.58917919 C8.92516049,4.58917919 8.65920531,4.71734567 8.40599652,4.9735592 L8.40599652,4.53895178 C8.65238746,4.33368235 8.93927047,4.23107749 9.26652696,4.23107749 Z M3.46610323,4.23101777 C3.78500045,4.23101777 4.0190007,4.26989772 4.16810398,4.3478368 L4.16810398,4.80257101 C3.97483293,4.66765578 3.7304577,4.6001683 3.43503758,4.6001683 C3.23898011,4.6001683 3.07920543,4.64155664 2.95565424,4.72427359 C2.83210306,4.80705027 2.77032747,4.92213732 2.77032747,5.06953475 C2.77032747,5.20020962 2.81307238,5.30663678 2.89874007,5.38869677 C2.98428918,5.47075677 3.17003096,5.58267848 3.45578754,5.72452163 C3.77053477,5.87615942 3.99072147,6.02773749 4.11634765,6.17931556 C4.24197383,6.33089363 4.30481657,6.50128458 4.30481657,6.69036896 C4.30481657,6.97411499 4.2026082,7.1918069 3.99836932,7.34332524 C3.79407115,7.49496304 3.51038957,7.57075207 3.14732458,7.57075207 C3.02027554,7.57075207 2.87223941,7.55301421 2.70315689,7.51753849 C2.53401508,7.48206277 2.41081961,7.43792716 2.33351119,7.38507192 L2.33351119,6.90943451 C2.43133242,6.99567515 2.56247216,7.06662658 2.72681184,7.1222291 C2.89109223,7.17789134 3.04707263,7.20566273 3.19481234,7.20566273 C3.6448493,7.20566273 3.86989743,7.04434974 3.86989743,6.72166404 C3.86989743,6.63124277 3.8457089,6.54989945 3.79739114,6.47757438 C3.74907338,6.40530902 3.68279208,6.34134523 3.59860654,6.28568299 C3.51442099,6.23002075 3.35636559,6.14455652 3.12438105,6.0290514 C2.8026974,5.86779814 2.59081068,5.71795205 2.4886616,5.57957286 C2.38651251,5.44119367 2.33546761,5.2829863 2.33546761,5.10501047 C2.33546761,4.83661337 2.44241883,4.62381878 2.65643984,4.46668643 C2.87040155,4.30955408 3.14032888,4.23101777 3.46610323,4.23101777 Z M6.35969487,4.6241174 C6.04050122,4.6241174 5.78195673,4.74935743 5.58400212,4.99971806 C5.38604752,5.25013841 5.28709985,5.57837839 5.28709985,5.98455745 C5.28709985,6.39372268 5.38373538,6.72160432 5.57700642,6.96838154 C5.77021818,7.21515876 6.02241911,7.33854737 6.33349064,7.33854737 C6.66750569,7.33854737 6.92978517,7.22029497 7.12026979,6.98367074 C7.3108137,6.74710622 7.40608565,6.41629814 7.40608565,5.99118675 C7.40608565,5.55442929 7.31282941,5.21740997 7.12631692,4.98006905 C6.93980443,4.74278786 6.68422423,4.6241174 6.35969487,4.6241174 Z M12.5816993,0 L12.5816993,1.65751212 L11.8496732,1.65751212 L11.8496732,0 L12.5816993,0 Z" id="合并形状"></path>
                </g>
            </g>
        </g>
    </g>
</svg>