<?xml version="1.0" encoding="UTF-8"?>
<svg width="32px" height="22px" viewBox="0 0 32 22" version="1.1" xmlns="http://www.w3.org/2000/svg" xmlns:xlink="http://www.w3.org/1999/xlink">
    <!-- Generator: Sketch 57.1 (83088) - https://sketch.com -->
    <title>系统切换@2x</title>
    <desc>Created with Sketch.</desc>
    <g id="V2.1正式版" stroke="none" stroke-width="1" fill="none" fill-rule="evenodd">
        <g id="首页二级导航" transform="translate(-1870.000000, -25.000000)" fill="#69FFF9">
            <g id="导航">
                <path d="M1891,25 C1893.20914,25 1895,26.790861 1895,29 L1895,31 L1893,31 L1893,29.5 C1893,28.1192881 1891.88071,27 1890.5,27 L1874.5,27 C1873.17452,27 1872.08996,28.0315359 1872.00532,29.3356243 L1872,29.5 L1872,42.5 C1872,43.8254834 1873.03154,44.9100387 1874.33562,44.9946823 L1874.5,45 L1890.5,45 C1891.82548,45 1892.91004,43.9684641 1892.99468,42.6643757 L1893,42.5 L1893,41 L1895,41 L1895,43 C1895,45.209139 1893.20914,47 1891,47 L1874,47 C1871.79086,47 1870,45.209139 1870,43 L1870,29 C1870,26.790861 1871.79086,25 1874,25 L1891,25 Z M1877,37 C1878.10457,37 1879,37.8954305 1879,39 C1879,40.1045695 1878.10457,41 1877,41 C1875.89543,41 1875,40.1045695 1875,39 C1875,37.8954305 1875.89543,37 1877,37 Z M1884,37 C1885.10457,37 1886,37.8954305 1886,39 C1886,40.1045695 1885.10457,41 1884,41 C1882.89543,41 1882,40.1045695 1882,39 C1882,37.8954305 1882.89543,37 1884,37 Z M1898.70711,32.4644661 L1901.53553,35.2928932 C1901.89816,35.6555229 1901.92407,36.2273683 1901.61324,36.619886 L1901.53553,36.7071068 L1898.70711,39.5355339 C1898.31658,39.9260582 1897.68342,39.9260582 1897.29289,39.5355339 C1896.90237,39.1450096 1896.90237,38.5118446 1897.29289,38.1213203 L1898.414,37 L1891,37 C1890.44772,37 1890,36.5522847 1890,36 C1890,35.4477153 1890.44772,35 1891,35 L1898.414,35 L1897.29289,33.8786797 C1896.90237,33.4881554 1896.90237,32.8549904 1897.29289,32.4644661 C1897.68342,32.0739418 1898.31658,32.0739418 1898.70711,32.4644661 Z M1877,31 C1878.10457,31 1879,31.8954305 1879,33 C1879,34.1045695 1878.10457,35 1877,35 C1875.89543,35 1875,34.1045695 1875,33 C1875,31.8954305 1875.89543,31 1877,31 Z M1884,31 C1885.10457,31 1886,31.8954305 1886,33 C1886,34.1045695 1885.10457,35 1884,35 C1882.89543,35 1882,34.1045695 1882,33 C1882,31.8954305 1882.89543,31 1884,31 Z" id="系统切换"></path>
            </g>
        </g>
    </g>
</svg>