<?xml version="1.0" encoding="UTF-8"?>
<svg width="16px" height="16px" viewBox="0 0 16 16" version="1.1" xmlns="http://www.w3.org/2000/svg" xmlns:xlink="http://www.w3.org/1999/xlink">
    <!-- Generator: Sketch 57.1 (83088) - https://sketch.com -->
    <title>坏点</title>
    <desc>Created with Sketch.</desc>
    <g id="V2.1正式版" stroke="none" stroke-width="1" fill="none" fill-rule="evenodd">
        <g id="首页" transform="translate(-1348.000000, -522.000000)" fill-rule="nonzero">
            <g id="感叹号" transform="translate(1348.000000, 522.000000)">
                <rect id="矩形" fill="#000000" opacity="0" x="0" y="0" width="16" height="16"></rect>
                <path d="M8.729,6.9225 L7.274,6.9225 C7.073,6.9225 6.9105,7.0855 6.9105,7.2855 L6.9105,11.703 C6.9105,11.9035 7.0735,12.066 7.274,12.066 L8.729,12.066 C8.93,12.066 9.09250115,11.903 9.09250115,11.703 L9.09250115,7.2855 C9.093,7.085 8.93,6.9225 8.729,6.9225 Z M8,-1.13686838e-13 C3.5905,-1.13686838e-13 0,3.5885 0,8.0005 C0,12.4125 3.5895,16 8,16 C12.411,16 16,12.4125 16,8.0005 C16,3.5885 12.412,-1.13686838e-13 8,-1.13686838e-13 Z M7.993,14.983 C4.137,14.983 1.0015,11.846 1.0015,7.9915 C1.0015,4.1345 4.1375,0.9985 7.993,0.9985 C11.8485,0.9985 14.9855,4.134 14.9855,7.9915 C14.986,11.8465 11.849,14.983 7.993,14.983 Z M8.002,3.917 C7.7005,3.917 7.4005,4.041 7.187,4.254 C6.9735,4.467 6.8495,4.7665 6.8495,5.0675 C6.8495,5.3685 6.9735,5.6685 7.187,5.881 C7.4005,6.0935 7.7,6.218 8.002,6.218 C8.304,6.218 8.6035,6.094 8.817,5.881 C9.03,5.668 9.1545,5.3685 9.1545,5.0675 C9.1545,4.7665 9.0305,4.4665 8.817,4.254 C8.604,4.041 8.304,3.917 8.002,3.917 Z" id="形状" fill="#FF1F1F"></path>
            </g>
        </g>
    </g>
</svg>