<?xml version="1.0" encoding="UTF-8"?>
<svg width="15px" height="14px" viewBox="0 0 15 14" version="1.1" xmlns="http://www.w3.org/2000/svg" xmlns:xlink="http://www.w3.org/1999/xlink">
    <!-- Generator: Sketch 57.1 (83088) - https://sketch.com -->
    <title>脱水智能优化@1x</title>
    <desc>Created with Sketch.</desc>
    <g id="V2.1正式版" stroke="none" stroke-width="1" fill="none" fill-rule="evenodd" opacity="0.200000003">
        <g id="首页二级导航" transform="translate(-643.000000, -197.000000)" fill="#B0D5DC" fill-rule="nonzero">
            <g id="编组备份-2" transform="translate(611.000000, 180.000000)">
                <g id="脱水智能优化" transform="translate(32.000000, 17.000000)">
                    <path d="M14.0792477,4.99025087 C14.2087889,5.06614527 14.2951498,5.19624995 14.3275351,5.33719669 L14.3275351,5.36972286 C14.4786666,6.161193 14.5110519,6.99603136 14.4031008,7.84171179 C14.0684526,9.83665022 13.1400735,11.4304326 11.6395537,12.5688485 C10.3981166,13.5229495 8.9623675,14 7.36469184,14 C7.03004356,14 6.69539528,13.9783159 6.34995189,13.9349477 C5.23805599,13.7506327 4.24490625,13.3711607 3.39209289,12.8073738 C3.01426419,12.5471644 2.64723059,12.2435868 2.31258231,11.896641 L2.25860678,12.3194812 C2.20463125,12.6230588 1.9347536,12.8182158 1.63249064,12.7856896 C1.34102278,12.7423214 1.14671088,12.4821121 1.16830109,12.1785345 L1.3734081,10.7256989 C1.40579342,10.4763316 1.53533469,10.2703325 1.72964659,10.1185437 C1.9239585,9.97759696 2.16145083,9.91254462 2.40973826,9.94507079 L3.84548734,10.1510699 C4.1477503,10.2052802 4.3420622,10.4871736 4.28808668,10.7907512 C4.23411115,11.0834867 3.97502861,11.2786438 3.68356075,11.2461176 L3.12221525,11.1702232 C3.39209289,11.4412746 3.69435585,11.6797999 3.99661882,11.8857989 C4.71989091,12.3628494 5.56190916,12.6881111 6.50108337,12.8398999 C8.2283003,13.045899 9.6964347,12.666427 10.9810523,11.6906419 C12.2548748,10.7365409 13.0429175,9.3921259 13.3235903,7.68992299 C13.4099511,6.93097902 13.3883609,6.22624534 13.2480245,5.57572193 C13.2156392,5.4347752 13.2372294,5.2829864 13.3235903,5.16372378 C13.399156,5.0336191 13.5286973,4.94688265 13.6690336,4.91435648 C13.80937,4.8818303 13.9605015,4.90351442 14.0792477,4.99025087 Z M7.10197483,-2.13162821e-14 C7.43662311,-2.13162821e-14 7.77127139,0.0216841134 8.11671478,0.0650523403 C9.22861068,0.249367304 10.2217604,0.628839289 11.0745738,1.19262624 C11.4524025,1.4528356 11.8194361,1.75641319 12.1540844,2.103359 L12.2080599,1.68051879 C12.2620354,1.3769412 12.5319131,1.18178418 12.834176,1.21431035 C13.1256439,1.25767858 13.3199558,1.51788794 13.2983656,1.82146553 L13.0932586,3.27430113 C13.0608732,3.52366843 12.931332,3.72966751 12.7370201,3.8814563 C12.5427082,4.02240304 12.3052158,4.08745538 12.0569284,4.05492921 L10.6211793,3.84893013 C10.3189164,3.79471985 10.1246045,3.51282637 10.17858,3.20924879 C10.2325555,2.91651326 10.4916381,2.72135623 10.7831059,2.7538824 L11.3444514,2.8297768 C11.0745738,2.55872538 10.7723108,2.32020014 10.4700478,2.11420106 C9.74677576,1.63715056 8.9047575,1.31188886 7.9655833,1.16010007 C6.23836636,0.954100991 4.77023197,1.33357298 3.48561438,2.30935808 C2.21179189,3.26345907 1.42374916,4.6078741 1.14307641,6.31007701 C1.05671557,7.06902098 1.07830578,7.77375466 1.21864215,8.42427807 C1.25102747,8.5652248 1.22943726,8.7170136 1.14307641,8.83627622 C1.06751067,8.9663809 0.937969402,9.05311735 0.797633026,9.08564352 C0.65729665,9.1181697 0.506165169,9.09648558 0.387419004,9.00974913 C0.257877735,8.93385473 0.171516888,8.80375005 0.13913157,8.66280331 L0.13913157,8.63027714 C-0.0119999112,7.838807 -0.0443852287,7.00396864 0.0635658296,6.15828821 C0.39821411,4.16334978 1.32659321,2.56956744 2.82711292,1.43115149 C4.06855009,0.477050495 5.50429917,-2.13162821e-14 7.10197483,-2.13162821e-14 Z" id="合并形状"></path>
                </g>
            </g>
        </g>
    </g>
</svg>