<?xml version="1.0" encoding="UTF-8"?>
<svg width="15px" height="14px" viewBox="0 0 15 14" version="1.1" xmlns="http://www.w3.org/2000/svg" xmlns:xlink="http://www.w3.org/1999/xlink">
    <!-- Generator: Sketch 57.1 (83088) - https://sketch.com -->
    <title>制浆系统智能优化@1x</title>
    <desc>Created with Sketch.</desc>
    <g id="V2.1正式版" stroke="none" stroke-width="1" fill="none" fill-rule="evenodd" opacity="0.200000003">
        <g id="首页二级导航" transform="translate(-643.000000, -233.000000)" fill="#B0D5DC" fill-rule="nonzero">
            <g id="编组备份-4" transform="translate(611.000000, 215.000000)">
                <g id="制浆系统智能优化" transform="translate(32.000000, 18.000000)">
                    <path d="M3.27274771,7.27242322 C3.18764033,7.17884317 3.14739912,7.13458994 3.10242795,7.08510887 C3.01856166,6.99283212 2.94852875,6.91567197 2.88156672,6.84174029 C0.912238689,4.66743748 0.109375,3.55596262 0.109375,2.66790264 C0.109375,1.27016466 3.55999591,0.109375 7.43150455,0.109375 C11.2614448,0.109375 14.7536341,1.25738206 14.7536341,2.58830519 C14.7536341,3.59971116 13.8203962,4.84846085 11.5624691,7.24528233 C10.7817038,8.03167317 10.0749768,8.88822631 9.45121715,9.80409952 L9.45109502,12.6044149 C9.42931983,13.0620659 9.12033222,13.45582 8.6905824,13.5824623 C8.28795067,13.7435313 7.85738333,13.8231863 7.42538167,13.8168332 C6.2698957,13.8168332 5.38729896,13.3746019 5.38729896,12.5992166 L5.38729896,9.83470618 C4.76362427,8.91877575 4.05686146,8.06218586 3.27274771,7.27242322 Z M11.6545118,5.93547994 C11.8039584,5.76905924 11.9412405,5.614574 12.0711296,5.46642475 C13.2839361,4.08311898 13.9225959,3.15804993 13.9225959,2.66790264 C13.9225959,2.41347753 13.2583171,1.97314119 12.2124803,1.62359681 C10.9342149,1.19636905 9.27089536,0.940413157 7.43150455,0.940413157 C5.60195488,0.940413157 3.94162452,1.19335411 2.64971474,1.61391565 C1.61784747,1.94982432 0.940413157,2.37386227 0.940413157,2.58830519 C0.940413157,3.29177645 1.81175513,4.4145333 3.90225864,6.68656279 C4.76317669,7.54285918 5.52967813,8.48910624 6.19515293,9.52071288 C6.22275157,9.57769414 6.23696398,9.64022871 6.23670577,9.70309364 L6.23670577,12.580848 C6.23670577,12.760904 6.78451511,12.9674264 7.44573841,12.9674445 C7.770513,12.9733488 8.09329816,12.9155663 8.39008553,12.7998089 C8.55343169,12.7249419 8.65079487,12.6406396 8.65079487,12.5747251 L8.65079578,9.69741841 C8.65053665,9.63410584 8.66474905,9.57157127 8.69883953,9.50303006 C9.3553056,8.48410085 10.1191115,7.53848509 10.9771639,6.68239022 C11.3162356,6.31035112 11.4648145,6.14672316 11.6545118,5.93547994 Z M14.0573117,2.4679198 L14.0596578,2.46913786 C14.2638695,2.57799301 14.3425067,2.81349924 14.2374029,3.01402899 C13.8436873,3.68159104 12.6186141,4.09994601 10.8043967,4.33904147 C9.6238368,4.4946273 8.37304203,4.55291332 7.3224672,4.55291332 C6.27321773,4.55291332 5.02487972,4.49464421 3.84550256,4.33903902 C2.03382254,4.10000878 0.807607693,3.6816982 0.407618036,3.01417542 C0.288155829,2.81235587 0.368858542,2.55950858 0.587872593,2.44942519 C0.806886643,2.3393418 1.08127587,2.41370864 1.20134546,2.61656759 C1.56084884,3.23982178 4.20899073,3.7402438 7.3224672,3.7402438 C10.4200178,3.7402438 13.0767927,3.24329675 13.4440602,2.63412744 C13.5012535,2.53695096 13.5981119,2.46478187 13.7132037,2.43358891 C13.8282954,2.40239595 13.9521318,2.41475083 14.0573117,2.4679198 Z" id="合并形状"></path>
                </g>
            </g>
        </g>
    </g>
</svg>